G04*
G04 #@! TF.GenerationSoftware,Altium Limited,Altium Designer,21.2.1 (34)*
G04*
G04 Layer_Color=16711935*
%FSLAX24Y24*%
%MOIN*%
G70*
G04*
G04 #@! TF.SameCoordinates,0DDDE1A0-FCF8-4535-BD96-C2C20E8F4AC2*
G04*
G04*
G04 #@! TF.FilePolarity,Negative*
G04*
G01*
G75*
%ADD49O,0.1500X0.1800*%
%ADD50R,0.0800X0.1000*%
%ADD51R,0.0591X0.0591*%
%ADD52C,0.0591*%
%ADD53O,0.0600X0.0900*%
%ADD54C,0.0630*%
%ADD55R,0.0630X0.0630*%
%ADD56R,0.0630X0.0630*%
%ADD57C,0.0750*%
%ADD58R,0.1181X0.1181*%
%ADD59C,0.1181*%
%ADD60C,0.0480*%
%ADD61C,0.1500*%
%ADD62O,0.0800X0.1000*%
%ADD63C,0.1200*%
%ADD64C,0.1100*%
%ADD65R,0.1100X0.1100*%
%ADD66C,0.0200*%
D49*
X14680Y30366D02*
D03*
Y34116D02*
D03*
X14690Y38011D02*
D03*
Y41761D02*
D03*
D50*
X13700Y45550D02*
D03*
D51*
X20532Y29242D02*
D03*
D52*
X22895D02*
D03*
X18170Y42471D02*
D03*
X25257D02*
D03*
D53*
X39500Y42741D02*
D03*
X40500D02*
D03*
X41500D02*
D03*
X42500D02*
D03*
X43500D02*
D03*
X44500D02*
D03*
X39500Y48741D02*
D03*
X40500D02*
D03*
X41500D02*
D03*
X42500D02*
D03*
X43500D02*
D03*
X44500D02*
D03*
D54*
X54690Y40781D02*
D03*
Y41781D02*
D03*
X39720Y38951D02*
D03*
X38720D02*
D03*
X37720D02*
D03*
X54620Y46331D02*
D03*
Y45331D02*
D03*
Y47331D02*
D03*
X11550Y20650D02*
D03*
D55*
X54690Y39781D02*
D03*
X54620Y44331D02*
D03*
X11550Y21650D02*
D03*
D56*
X40720Y38951D02*
D03*
D57*
X45660Y17651D02*
D03*
X48370Y19531D02*
D03*
Y17651D02*
D03*
X45660Y19531D02*
D03*
X39021Y31250D02*
D03*
X40950D02*
D03*
X45670Y28911D02*
D03*
X48380Y27031D02*
D03*
Y28911D02*
D03*
X45670Y27031D02*
D03*
X45670Y22423D02*
D03*
X48380Y24303D02*
D03*
Y22423D02*
D03*
X45670Y24303D02*
D03*
X39430D02*
D03*
X42140Y22423D02*
D03*
Y24303D02*
D03*
X39430Y22423D02*
D03*
X51801Y24303D02*
D03*
X54511Y22423D02*
D03*
Y24303D02*
D03*
X51801Y22423D02*
D03*
D58*
X51890Y36833D02*
D03*
D59*
Y33487D02*
D03*
Y30141D02*
D03*
D60*
X35150Y31001D02*
D03*
X36150D02*
D03*
D61*
X14700Y47850D02*
D03*
D62*
X15700Y45550D02*
D03*
X14700D02*
D03*
D63*
X21341Y20662D02*
D03*
X15750Y18300D02*
D03*
Y23100D02*
D03*
X20553Y18300D02*
D03*
Y23024D02*
D03*
D64*
X11090Y26531D02*
D03*
X12590D02*
D03*
X14080D02*
D03*
D65*
X15590Y26561D02*
D03*
D66*
X46550Y35361D02*
D03*
X46590Y35991D02*
D03*
X45980Y35361D02*
D03*
X45950Y35991D02*
D03*
M02*
