G04*
G04 #@! TF.GenerationSoftware,Altium Limited,Altium Designer,21.2.1 (34)*
G04*
G04 Layer_Color=8421504*
%FSLAX24Y24*%
%MOIN*%
G70*
G04*
G04 #@! TF.SameCoordinates,0DDDE1A0-FCF8-4535-BD96-C2C20E8F4AC2*
G04*
G04*
G04 #@! TF.FilePolarity,Positive*
G04*
G01*
G75*
G04:AMPARAMS|DCode=25|XSize=12.6mil|YSize=33.1mil|CornerRadius=1.6mil|HoleSize=0mil|Usage=FLASHONLY|Rotation=180.000|XOffset=0mil|YOffset=0mil|HoleType=Round|Shape=RoundedRectangle|*
%AMROUNDEDRECTD25*
21,1,0.0126,0.0299,0,0,180.0*
21,1,0.0094,0.0331,0,0,180.0*
1,1,0.0032,-0.0047,0.0150*
1,1,0.0032,0.0047,0.0150*
1,1,0.0032,0.0047,-0.0150*
1,1,0.0032,-0.0047,-0.0150*
%
%ADD25ROUNDEDRECTD25*%
G04:AMPARAMS|DCode=26|XSize=33.1mil|YSize=12.6mil|CornerRadius=1.6mil|HoleSize=0mil|Usage=FLASHONLY|Rotation=180.000|XOffset=0mil|YOffset=0mil|HoleType=Round|Shape=RoundedRectangle|*
%AMROUNDEDRECTD26*
21,1,0.0331,0.0094,0,0,180.0*
21,1,0.0299,0.0126,0,0,180.0*
1,1,0.0032,-0.0150,0.0047*
1,1,0.0032,0.0150,0.0047*
1,1,0.0032,0.0150,-0.0047*
1,1,0.0032,-0.0150,-0.0047*
%
%ADD26ROUNDEDRECTD26*%
%ADD27R,0.0811X0.0811*%
%ADD28R,0.0394X0.0945*%
%ADD29R,0.1299X0.0945*%
%ADD30R,0.0669X0.0118*%
%ADD31R,0.0118X0.0669*%
%ADD32O,0.0630X0.0886*%
%ADD33R,0.0551X0.0472*%
%ADD34R,0.0984X0.0984*%
%ADD35R,0.1575X0.0787*%
%ADD36R,0.0472X0.0551*%
%ADD37R,0.0374X0.0354*%
%ADD38R,0.0700X0.0800*%
%ADD39R,0.1024X0.1024*%
%ADD40R,0.0630X0.0591*%
%ADD41R,0.0600X0.0650*%
%ADD42R,0.0500X0.0550*%
%ADD43R,0.0550X0.0500*%
%ADD44R,0.0984X0.0669*%
%ADD45R,0.0315X0.0472*%
D25*
X46761Y36613D02*
D03*
X46505D02*
D03*
X46249D02*
D03*
X45993D02*
D03*
X45737D02*
D03*
Y34696D02*
D03*
X45993D02*
D03*
X46249D02*
D03*
X46505D02*
D03*
X46761D02*
D03*
D26*
X47207Y35143D02*
D03*
Y35399D02*
D03*
Y35655D02*
D03*
Y35911D02*
D03*
Y36166D02*
D03*
X45290D02*
D03*
Y35911D02*
D03*
Y35655D02*
D03*
Y35399D02*
D03*
Y35143D02*
D03*
D27*
X46249Y35655D02*
D03*
D28*
X30536Y42552D02*
D03*
X29630D02*
D03*
X28725D02*
D03*
D29*
X29630Y40269D02*
D03*
D30*
X38625Y34861D02*
D03*
Y35058D02*
D03*
Y35255D02*
D03*
Y35452D02*
D03*
Y35649D02*
D03*
Y35845D02*
D03*
Y36042D02*
D03*
Y36239D02*
D03*
Y36436D02*
D03*
Y36633D02*
D03*
Y36830D02*
D03*
Y37027D02*
D03*
X41962D02*
D03*
Y36830D02*
D03*
Y36633D02*
D03*
Y36436D02*
D03*
Y36239D02*
D03*
Y36042D02*
D03*
Y35845D02*
D03*
Y35649D02*
D03*
Y35452D02*
D03*
Y35255D02*
D03*
Y35058D02*
D03*
Y34861D02*
D03*
D31*
X39211Y37612D02*
D03*
X39408D02*
D03*
X39605D02*
D03*
X39802D02*
D03*
X39999D02*
D03*
X40195D02*
D03*
X40392D02*
D03*
X40589D02*
D03*
X40786D02*
D03*
X40983D02*
D03*
X41180D02*
D03*
X41377D02*
D03*
Y34275D02*
D03*
X41180D02*
D03*
X40983D02*
D03*
X40786D02*
D03*
X40589D02*
D03*
X40392D02*
D03*
X40195D02*
D03*
X39999D02*
D03*
X39802D02*
D03*
X39605D02*
D03*
X39408D02*
D03*
X39211D02*
D03*
D32*
X28390Y24467D02*
D03*
X29390D02*
D03*
Y27814D02*
D03*
X28390D02*
D03*
X29350Y30547D02*
D03*
X28350D02*
D03*
Y33894D02*
D03*
X29350D02*
D03*
D33*
X33966Y33935D02*
D03*
Y34683D02*
D03*
Y35725D02*
D03*
Y36473D02*
D03*
X32192Y33918D02*
D03*
Y34666D02*
D03*
X32204Y36476D02*
D03*
Y35728D02*
D03*
X37020Y29661D02*
D03*
Y28913D02*
D03*
X36980Y31849D02*
D03*
Y31101D02*
D03*
X50010Y18203D02*
D03*
Y18951D02*
D03*
X37492Y34078D02*
D03*
Y34826D02*
D03*
X44720Y41137D02*
D03*
Y40388D02*
D03*
X41800Y41137D02*
D03*
Y40388D02*
D03*
X43260Y41137D02*
D03*
Y40388D02*
D03*
X46180Y41137D02*
D03*
Y40388D02*
D03*
X47640Y41137D02*
D03*
Y40388D02*
D03*
X49100Y41137D02*
D03*
Y40388D02*
D03*
X50560Y41137D02*
D03*
Y40388D02*
D03*
X40338Y40390D02*
D03*
Y41138D02*
D03*
X37420Y41137D02*
D03*
Y40388D02*
D03*
X33040Y41137D02*
D03*
Y40388D02*
D03*
X34500Y41137D02*
D03*
Y40388D02*
D03*
X35960Y41137D02*
D03*
Y40388D02*
D03*
X38880Y41137D02*
D03*
Y40388D02*
D03*
X33996Y32115D02*
D03*
Y32863D02*
D03*
X49412Y23826D02*
D03*
Y23078D02*
D03*
X43281Y23776D02*
D03*
Y23028D02*
D03*
X49420Y28399D02*
D03*
Y27651D02*
D03*
X55451Y23856D02*
D03*
Y23108D02*
D03*
X32200Y32801D02*
D03*
Y32053D02*
D03*
X49320Y33189D02*
D03*
Y32441D02*
D03*
X22124Y44778D02*
D03*
Y45526D02*
D03*
X29840Y44393D02*
D03*
Y45141D02*
D03*
X49250Y36650D02*
D03*
Y35902D02*
D03*
X45050Y32163D02*
D03*
Y32911D02*
D03*
X46830Y32171D02*
D03*
Y32919D02*
D03*
X23842Y45236D02*
D03*
Y44488D02*
D03*
X26029Y44535D02*
D03*
Y45283D02*
D03*
X28182Y45106D02*
D03*
Y44358D02*
D03*
D34*
X33780Y27256D02*
D03*
Y20485D02*
D03*
D35*
X31132Y47981D02*
D03*
X28848D02*
D03*
X26765Y47961D02*
D03*
X23970D02*
D03*
D36*
X41412Y32662D02*
D03*
X40664D02*
D03*
X43116Y38259D02*
D03*
X42368D02*
D03*
X38352Y29600D02*
D03*
X39100D02*
D03*
X23408Y18677D02*
D03*
X24156D02*
D03*
X26458D02*
D03*
X27206D02*
D03*
X24272Y23346D02*
D03*
X23524D02*
D03*
X40850Y29650D02*
D03*
X41598D02*
D03*
D37*
X36364Y45785D02*
D03*
X35380Y45411D02*
D03*
X36364Y45037D02*
D03*
X48172Y45785D02*
D03*
X47188Y45411D02*
D03*
X48172Y45037D02*
D03*
X40300Y45785D02*
D03*
X39316Y45411D02*
D03*
X40300Y45037D02*
D03*
X44236Y45785D02*
D03*
X43252Y45411D02*
D03*
X44236Y45037D02*
D03*
X27372Y20317D02*
D03*
X26388Y20691D02*
D03*
X27372Y21065D02*
D03*
D38*
X18550Y44875D02*
D03*
X19550D02*
D03*
X20550D02*
D03*
Y48525D02*
D03*
X19550D02*
D03*
X18550D02*
D03*
D39*
X24134Y26950D02*
D03*
X22166D02*
D03*
X19550Y26900D02*
D03*
X17581D02*
D03*
D40*
X22250Y48431D02*
D03*
Y47250D02*
D03*
D41*
X32380Y37621D02*
D03*
X33800D02*
D03*
D42*
X26305Y23346D02*
D03*
X27205D02*
D03*
D43*
X31350Y44361D02*
D03*
Y45261D02*
D03*
D44*
X23213Y20821D02*
D03*
X24788D02*
D03*
D45*
X28890Y38788D02*
D03*
Y36033D02*
D03*
M02*
