G04*
G04 #@! TF.GenerationSoftware,Altium Limited,Altium Designer,21.2.1 (34)*
G04*
G04 Layer_Color=32768*
%FSLAX24Y24*%
%MOIN*%
G70*
G04*
G04 #@! TF.SameCoordinates,0DDDE1A0-FCF8-4535-BD96-C2C20E8F4AC2*
G04*
G04*
G04 #@! TF.FilePolarity,Positive*
G04*
G01*
G75*
%ADD20C,0.0080*%
%ADD75C,0.0039*%
%ADD76R,0.0098X0.0236*%
D20*
X35710Y45121D02*
X36010D01*
Y45271D01*
X35960Y45320D01*
X35910D01*
X35860Y45271D01*
Y45121D01*
Y45271D01*
X35810Y45320D01*
X35760D01*
X35710Y45271D01*
Y45121D01*
X36010Y45420D02*
X35810D01*
X35710Y45520D01*
X35810Y45620D01*
X36010D01*
X35860D01*
Y45420D01*
X47252Y44938D02*
X47552D01*
Y45088D01*
X47502Y45138D01*
X47452D01*
X47402Y45088D01*
Y44938D01*
Y45088D01*
X47352Y45138D01*
X47302D01*
X47252Y45088D01*
Y44938D01*
X47552Y45238D02*
X47352D01*
X47252Y45338D01*
X47352Y45438D01*
X47552D01*
X47402D01*
Y45238D01*
X47335Y45138D02*
X47135D01*
X47085Y45088D01*
Y44988D01*
X47135Y44938D01*
X47335D01*
X47385Y44988D01*
Y45088D01*
X47285Y45038D02*
X47385Y45138D01*
Y45088D02*
X47335Y45138D01*
X47385Y45438D02*
Y45238D01*
X47185Y45438D01*
X47135D01*
X47085Y45388D01*
Y45288D01*
X47135Y45238D01*
X39680Y45191D02*
X39980D01*
Y45340D01*
X39930Y45390D01*
X39880D01*
X39830Y45340D01*
Y45191D01*
Y45340D01*
X39780Y45390D01*
X39730D01*
X39680Y45340D01*
Y45191D01*
X39980Y45490D02*
X39780D01*
X39680Y45590D01*
X39780Y45690D01*
X39980D01*
X39830D01*
Y45490D01*
X43316Y44938D02*
X43616D01*
Y45088D01*
X43566Y45138D01*
X43516D01*
X43466Y45088D01*
Y44938D01*
Y45088D01*
X43416Y45138D01*
X43366D01*
X43316Y45088D01*
Y44938D01*
X43616Y45238D02*
X43416D01*
X43316Y45338D01*
X43416Y45438D01*
X43616D01*
X43466D01*
Y45238D01*
X43399Y45138D02*
X43199D01*
X43149Y45088D01*
Y44988D01*
X43199Y44938D01*
X43399D01*
X43449Y44988D01*
Y45088D01*
X43349Y45038D02*
X43449Y45138D01*
Y45088D02*
X43399Y45138D01*
X43199Y45238D02*
X43149Y45288D01*
Y45388D01*
X43199Y45438D01*
X43249D01*
X43299Y45388D01*
Y45338D01*
Y45388D01*
X43349Y45438D01*
X43399D01*
X43449Y45388D01*
Y45288D01*
X43399Y45238D01*
X26535Y20418D02*
X26335D01*
X26285Y20368D01*
Y20268D01*
X26335Y20218D01*
X26535D01*
X26585Y20268D01*
Y20368D01*
X26485Y20318D02*
X26585Y20418D01*
Y20368D02*
X26535Y20418D01*
X26585Y20518D02*
Y20618D01*
Y20568D01*
X26285D01*
X26335Y20518D01*
X26452Y20218D02*
X26752D01*
X26602D01*
Y20418D01*
X26452D01*
X26752D01*
X26452Y20718D02*
Y20518D01*
X26602D01*
Y20618D01*
Y20518D01*
X26752D01*
D75*
X35380Y45922D02*
X36384D01*
X35380Y44899D02*
X36384D01*
X35380D02*
Y45922D01*
X36384Y44899D02*
Y45922D01*
X47188D02*
X48192D01*
X47188Y44899D02*
X48192D01*
X47188D02*
Y45922D01*
X48192Y44899D02*
Y45922D01*
X39316D02*
X40320D01*
X39316Y44899D02*
X40320D01*
X39316D02*
Y45922D01*
X40320Y44899D02*
Y45922D01*
X43252D02*
X44256D01*
X43252Y44899D02*
X44256D01*
X43252D02*
Y45922D01*
X44256Y44899D02*
Y45922D01*
X27392Y20179D02*
Y21202D01*
X26388Y20179D02*
Y21202D01*
Y20179D02*
X27392D01*
X26388Y21202D02*
X27392D01*
D76*
X35331Y45411D02*
D03*
X36423Y45046D02*
D03*
Y45775D02*
D03*
X47139Y45411D02*
D03*
X48231Y45046D02*
D03*
Y45775D02*
D03*
X39267Y45411D02*
D03*
X40359Y45046D02*
D03*
Y45775D02*
D03*
X43203Y45411D02*
D03*
X44295Y45046D02*
D03*
Y45775D02*
D03*
X27431Y21055D02*
D03*
Y20326D02*
D03*
X26339Y20691D02*
D03*
M02*
