M48
;Layer_Color=9474304
;FILE_FORMAT=2:4
INCH,LZ
;TYPE=PLATED
T1F00S00C0.0100
T2F00S00C0.0150
T3F00S00C0.0200
T4F00S00C0.0280
T5F00S00C0.0310
T6F00S00C0.0315
T7F00S00C0.0390
T8F00S00C0.0394
T9F00S00C0.0420
T10F00S00C0.0433
T11F00S00C0.0450
T12F00S00C0.0500
T13F00S00C0.0591
T14F00S00C0.0700
T15F00S00C0.0800
%
T01
X02918Y029071
X03013Y033311
X02921Y035271
X02543Y036831
X03155Y033901
X03297Y033321
X03319Y032861
X03668Y034811
X037651Y036841
X0398Y036861
X040249Y036774
X04053Y036921
X0399Y038201
X04028Y039921
X04293Y038961
X0439Y038631
X044512Y038135
X044934Y038227
X04609Y038201
X04546Y037001
X04595Y035991
X04626Y035671
X04598Y035361
X04655
X04659Y035991
X04459Y035431
X042869Y035461
X040385Y034925
X03939Y033181
X04229Y031631
X04616Y032431
X0458Y033751
X04527Y034251
X03441Y037591
T02
X02349Y024521
X02242Y042481
T03
X04347Y031361
X04678Y042221
X04374Y046271
X04165Y045021
X03424Y042971
X03444Y042141
X04792Y043341
T04
X05388Y029641
X05475Y028841
X05468Y030981
X03615Y031001
X03515
X01964Y021511
X02654Y033451
X0258Y040501
X02435Y039331
X0236Y040941
X03109Y038951
X034653Y044358
X03876Y045381
X04223Y044351
X04659Y044531
X05378Y038011
X05393Y036761
X05508Y037391
X0549Y035821
X0547Y034301
X05383Y034901
Y033351
X05396Y031681
X05473Y032451
X05159Y048631
X04874Y049411
X03416Y049031
X03476Y048261
X0335Y048201
X03267Y049041
X03261Y047301
T05
X04837Y017651
Y019531
X04838Y022423
Y024303
X04838Y027031
Y028911
X051801Y024303
Y022423
X054511
Y024303
X04567
Y022423
X04566Y019531
Y017651
X04214Y022423
Y024303
X03943
Y022423
X04567Y027031
Y028911
X0445Y042741
X0435
X0425
X0415
X0405
X0395
Y048741
X0405
X0415
X0425
X0435
X0445
T06
X01155Y02065
Y02165
X039021Y03125
X04095
X05469Y039781
Y040781
Y041781
X05462Y044331
Y045331
Y046331
Y047331
T07
X0137Y04555
X0147
X0157
T08
X020532Y029242
X022895
X025257Y042471
X01817
T09
X01109Y026531
X01259
X01408
X01559Y026561
T10
X03772Y038951
X03872
X03972
X04072
T11
X01575Y0183
Y0231
X020553Y023024
X021341Y020662
X020553Y0183
T12
X03378Y022286
X033778Y02528
T13
X05189Y030141
Y033487
Y036833
T14
X0147Y04785
T15
X01468Y030366
Y034116
X01469Y038011
Y041761
M30
